<svg width="64" height="64" viewBox="0 0 64 64" fill="none" xmlns="http://www.w3.org/2000/svg">
<path d="M21.4587 39.8164H14.5162H8.275H1.25C0.56 39.8164 0 40.3764 0 41.0664V60.4164C0 61.1064 0.56 61.6664 1.25 61.6664H21.4587C22.1488 61.6664 22.7087 61.1064 22.7087 60.4164V41.0664C22.7087 40.3764 22.1488 39.8164 21.4587 39.8164ZM13.2662 42.3164V45.3277H9.525V42.3164H13.2662ZM20.2087 59.1664H2.5V42.3164H7.025V46.5777C7.025 47.2677 7.585 47.8277 8.275 47.8277H14.5162C15.2062 47.8277 15.7662 47.2677 15.7662 46.5777V42.3164H20.2087V59.1664Z" fill="#8CBC4F"/>
<path d="M22.9977 25.562C23.0165 25.5382 23.034 25.5145 23.0515 25.4907C23.0565 25.4832 23.0602 25.4757 23.0652 25.4682C23.0827 25.4407 23.1002 25.4132 23.1152 25.3857C23.1177 25.3807 23.1202 25.3757 23.1227 25.3707C23.139 25.3395 23.154 25.307 23.1677 25.2745C23.169 25.272 23.1702 25.2682 23.1715 25.2657C23.1852 25.2307 23.199 25.1957 23.209 25.1595C23.2102 25.157 23.2102 25.1532 23.2115 25.1507C23.2215 25.1145 23.2315 25.0795 23.239 25.042C23.2415 25.032 23.2415 25.0232 23.2427 25.0132C23.2477 24.9832 23.254 24.952 23.2565 24.9207C23.2602 24.8795 23.2627 24.8382 23.2627 24.7957C23.2627 24.7932 23.2627 24.7907 23.2627 24.7882C23.2627 24.7495 23.2602 24.7095 23.2565 24.6707C23.254 24.6407 23.249 24.612 23.244 24.5832C23.2415 24.572 23.2415 24.5607 23.239 24.5495C23.2315 24.5145 23.2227 24.4807 23.2127 24.447C23.2115 24.442 23.2102 24.437 23.209 24.432C23.199 24.397 23.1865 24.3632 23.1727 24.3307C23.1715 24.327 23.1702 24.322 23.1677 24.3182C23.154 24.287 23.1402 24.2557 23.124 24.2257C23.1215 24.2195 23.119 24.2132 23.1152 24.207C23.1002 24.1795 23.084 24.1532 23.0665 24.1257C23.0615 24.1182 23.0565 24.1095 23.0515 24.1007C23.0352 24.0757 23.0165 24.052 22.9977 24.0282C22.9915 24.0195 22.9852 24.0107 22.9777 24.002C22.9515 23.9707 22.924 23.9395 22.8952 23.9107L18.8777 19.892C18.3902 19.4032 17.5977 19.4032 17.1102 19.892C16.6215 20.3795 16.6215 21.172 17.1102 21.6595L18.9952 23.5445H11.3965C10.7065 23.5445 10.1465 24.1045 10.1465 24.7945V35.6795C10.1465 36.3695 10.7065 36.9295 11.3965 36.9295C12.0865 36.9295 12.6465 36.3695 12.6465 35.6795V26.0445H18.994L17.2552 27.7832C16.7665 28.2707 16.7665 29.0632 17.2552 29.5507C17.499 29.7945 17.819 29.917 18.139 29.917C18.459 29.917 18.779 29.7945 19.0227 29.5507L22.8965 25.6782C22.9002 25.6745 22.9027 25.6707 22.9052 25.6682C22.9302 25.642 22.9552 25.6157 22.9777 25.5882C22.9852 25.5795 22.9915 25.5707 22.9977 25.562Z" fill="#8CBC4F"/>
<path d="M62.7502 0H27.1577C26.4677 0 25.9077 0.56 25.9077 1.25V60.405C25.9077 61.095 26.4677 61.655 27.1577 61.655H62.7502C63.4402 61.655 64.0002 61.095 64.0002 60.405V1.25C64.0002 0.56 63.4402 0 62.7502 0ZM61.5002 59.155H28.4077V2.5H61.5002V59.155Z" fill="#194A33"/>
<path d="M32.5854 52.9846C33.6866 53.2934 34.5591 54.1696 34.8616 55.2734C35.0104 55.8159 35.5041 56.1921 36.0666 56.1921H53.8404C54.4029 56.1921 54.8966 55.8159 55.0453 55.2734C55.3478 54.1696 56.2204 53.2934 57.3216 52.9846C57.8616 52.8334 58.2341 52.3409 58.2341 51.7809V35.9221C58.2341 35.2321 57.6741 34.6721 56.9841 34.6721C56.2941 34.6721 55.7341 35.2321 55.7341 35.9221V50.9196C54.5254 51.4946 53.5441 52.4809 52.9741 53.6921H36.9328C36.3628 52.4796 35.3816 51.4946 34.1729 50.9196V10.8184C35.4316 10.2221 36.4354 9.18711 36.9941 7.91211H52.9154C53.4741 9.18711 54.4779 10.2221 55.7366 10.8184V24.9171C55.7366 25.6071 56.2966 26.1671 56.9866 26.1671C57.6766 26.1671 58.2366 25.6071 58.2366 24.9171V9.95586C58.2366 9.39586 57.8629 8.90336 57.3241 8.75211C56.1841 8.43336 55.3029 7.51961 55.0241 6.36836C54.8879 5.80711 54.3866 5.41211 53.8091 5.41211H36.1003C35.5228 5.41211 35.0216 5.80711 34.8853 6.36836C34.6066 7.51961 33.7253 8.43336 32.5854 8.75211C32.0454 8.90336 31.6729 9.39586 31.6729 9.95586V51.7809C31.6729 52.3409 32.0454 52.8334 32.5854 52.9846Z" fill="#194A33"/>
<path d="M37.1792 29.0703V32.5753C37.1792 33.2653 37.7392 33.8253 38.4292 33.8253C39.1192 33.8253 39.6792 33.2653 39.6792 32.5753V29.0703C39.6792 28.3803 39.1192 27.8203 38.4292 27.8203C37.7392 27.8203 37.1792 28.3791 37.1792 29.0703Z" fill="#194A33"/>
<path d="M58.0251 29.6904C57.9801 29.6216 57.9276 29.5579 57.8701 29.5004C57.8126 29.4429 57.7476 29.3904 57.6801 29.3454C57.6113 29.3004 57.5388 29.2616 57.4638 29.2304C57.3888 29.1991 57.3101 29.1754 57.2301 29.1591C57.0688 29.1266 56.9026 29.1266 56.7413 29.1591C56.6613 29.1754 56.5826 29.1991 56.5076 29.2304C56.4326 29.2616 56.3601 29.3004 56.2913 29.3454C56.2238 29.3904 56.1588 29.4429 56.1013 29.5004C55.8688 29.7329 55.7363 30.0554 55.7363 30.3841C55.7363 30.4654 55.7438 30.5479 55.7601 30.6291C55.7763 30.7079 55.8001 30.7866 55.8313 30.8629C55.8626 30.9379 55.9013 31.0104 55.9463 31.0779C55.9926 31.1466 56.0438 31.2104 56.1013 31.2679C56.1588 31.3266 56.2238 31.3779 56.2913 31.4241C56.3601 31.4691 56.4326 31.5079 56.5076 31.5391C56.5826 31.5704 56.6613 31.5941 56.7413 31.6104C56.8226 31.6266 56.9038 31.6341 56.9863 31.6341C57.0676 31.6341 57.1488 31.6266 57.2301 31.6104C57.3101 31.5941 57.3888 31.5704 57.4638 31.5391C57.5388 31.5079 57.6113 31.4691 57.6801 31.4241C57.7476 31.3779 57.8126 31.3266 57.8701 31.2679C57.9276 31.2104 57.9801 31.1466 58.0251 31.0779C58.0701 31.0104 58.1088 30.9379 58.1401 30.8629C58.1713 30.7866 58.1951 30.7079 58.2113 30.6291C58.2276 30.5479 58.2351 30.4654 58.2351 30.3841C58.2351 30.3029 58.2276 30.2204 58.2113 30.1404C58.1951 30.0604 58.1713 29.9816 58.1401 29.9066C58.1088 29.8304 58.0701 29.7579 58.0251 29.6904Z" fill="#194A33"/>
</svg>
