<svg width="64" height="64" viewBox="0 0 64 64" fill="none" xmlns="http://www.w3.org/2000/svg">
<g clip-path="url(#clip0_59_1413)">
<mask id="mask0_59_1413" style="mask-type:luminance" maskUnits="userSpaceOnUse" x="0" y="0" width="64" height="64">
<path d="M64 0H0V64H64V0Z" fill="white"/>
</mask>
<g mask="url(#mask0_59_1413)">
<path d="M51.6268 53.7072C52.6768 46.5223 53.2224 39.3289 53.2486 32.3239C53.2758 24.9599 52.7302 17.548 51.6277 10.29L52.8821 1.42593C52.9327 1.06781 52.8258 0.704059 52.5886 0.431248C52.3505 0.156562 52.0065 0 51.6446 0H50.6968C50.2496 0 49.8362 0.239061 49.613 0.627184C48.9033 1.86093 47.8562 2.56874 46.7387 2.56874C45.6212 2.56874 44.574 1.86093 43.8643 0.627184C43.6412 0.239061 43.2277 0 42.7806 0H40.8699C40.4228 0 40.0093 0.239061 39.7862 0.627184C39.0765 1.86093 38.0293 2.56874 36.9118 2.56874C35.7943 2.56874 34.7472 1.86093 34.0375 0.627184C33.8153 0.239061 33.4019 0 32.9547 0H31.0441C30.5969 0 30.1834 0.239061 29.9603 0.627184C29.2516 1.86093 28.2034 2.56874 27.0869 2.56874C25.9694 2.56874 24.9222 1.86093 24.2125 0.627184C23.9894 0.239061 23.576 0 23.1288 0H21.2182C20.771 0 20.3575 0.239061 20.1344 0.627184C19.4247 1.86093 18.3776 2.56874 17.2601 2.56874C16.1426 2.56874 15.0954 1.86093 14.3857 0.627184C14.1635 0.239061 13.7501 0 13.3029 0H12.3551C11.9932 0 11.6492 0.156562 11.411 0.43031C11.1738 0.704059 11.066 1.06687 11.1176 1.42499L12.372 10.289C11.2685 17.5471 10.7229 24.9599 10.751 32.323C10.7773 39.3279 11.3229 46.5213 12.3729 53.7063L11.1176 62.5741C11.067 62.9322 11.1738 63.295 11.411 63.5688C11.6482 63.8425 11.9923 63.9991 12.3551 63.9991H13.3029C13.7501 63.9991 14.1635 63.76 14.3866 63.3719C15.0954 62.1381 16.1435 61.4303 17.261 61.4303C18.3785 61.4303 19.4257 62.1381 20.1354 63.3719C20.3585 63.76 20.7719 63.9991 21.2191 63.9991H23.1297C23.5769 63.9991 23.9903 63.76 24.2135 63.3719C24.9222 62.1381 25.9703 61.4303 27.0878 61.4303C28.2053 61.4303 29.2525 62.1381 29.9613 63.3719C30.1844 63.76 30.5978 63.9991 31.045 63.9991H32.9556C33.4028 63.9991 33.8162 63.76 34.0394 63.3719C34.749 62.1381 35.7962 61.4303 36.9137 61.4303C38.0312 61.4303 39.0784 62.1381 39.7881 63.3719C40.0112 63.76 40.4246 63.9991 40.8718 63.9991H42.7824C43.2296 63.9991 43.6431 63.76 43.8662 63.3719C44.5749 62.1381 45.6231 61.4303 46.7405 61.4303C47.858 61.4303 48.9052 62.1381 49.6149 63.3719C49.838 63.76 50.2515 63.9991 50.6986 63.9991H51.6465C52.0083 63.9991 52.3524 63.8425 52.5905 63.5688C52.8277 63.295 52.9355 62.9322 52.8839 62.5741L51.6268 53.7072ZM17.261 5.06904C19.0479 5.06904 20.7382 4.12123 21.8997 2.5003H22.4482C23.6088 4.12123 25.3 5.06904 27.0869 5.06904C28.8738 5.06904 30.5641 4.12123 31.7256 2.5003H32.275C33.4356 4.12123 35.1269 5.06904 36.9137 5.06904C38.7006 5.06904 40.3909 4.12123 41.5524 2.5003H42.1018C43.2624 4.12123 44.9527 5.06904 46.7405 5.06904C47.9105 5.06904 49.0393 4.6631 50.0049 3.92717L49.2802 9.04683H26.1353C25.4453 9.04683 24.8857 9.60652 24.8857 10.2965C24.8857 10.9865 25.4453 11.5462 26.1353 11.5462H49.2858C51.263 25.1089 51.249 38.5901 49.2455 52.691H14.7532C12.7498 38.5901 12.7366 25.1089 14.7129 11.5462H17.5141C18.2041 11.5462 18.7638 10.9865 18.7638 10.2965C18.7638 9.60652 18.2041 9.04683 17.5141 9.04683H14.7204L13.9957 3.92717C14.9623 4.66216 16.091 5.06904 17.261 5.06904ZM46.7387 58.931C44.9518 58.931 43.2606 59.8788 42.0999 61.4997H41.5515C40.3909 59.8788 38.6996 58.931 36.9128 58.931C35.1259 58.931 33.4356 59.8788 32.2741 61.4997H31.7247C30.5641 59.8788 28.8738 58.931 27.086 58.931C25.2991 58.931 23.6078 59.8788 22.4472 61.4997H21.8988C20.7382 59.8788 19.0479 58.931 17.2601 58.931C16.0901 58.931 14.9613 59.3369 13.9957 60.0728L14.6866 55.1913H49.3121L50.003 60.0728C49.0374 59.3378 47.9087 58.931 46.7387 58.931Z" fill="#194A33"/>
<path d="M41.4933 51.4408H46.6224C47.3124 51.4408 47.8721 50.8811 47.8721 50.1911C47.8721 49.5011 47.3124 48.9414 46.6224 48.9414H41.4933C40.8033 48.9414 40.2437 49.5011 40.2437 50.1911C40.2437 50.8811 40.8024 51.4408 41.4933 51.4408Z" fill="#194A33"/>
<path d="M37.8718 51.4408H37.9008C38.5908 51.4408 39.1505 50.8811 39.1505 50.1911C39.1505 49.5011 38.5908 48.9414 37.9008 48.9414H37.8718C37.1818 48.9414 36.6221 49.5011 36.6221 50.1911C36.6221 50.8811 37.1818 51.4408 37.8718 51.4408Z" fill="#194A33"/>
<path d="M21.1066 11.5462H21.1404C21.8304 11.5462 22.39 10.9866 22.39 10.2966C22.39 9.60656 21.8304 9.04688 21.1404 9.04688H21.1066C20.4166 9.04688 19.8569 9.60656 19.8569 10.2966C19.8569 10.9866 20.4157 11.5462 21.1066 11.5462Z" fill="#194A33"/>
<path d="M31.9996 15.75C23.04 15.75 15.75 23.04 15.75 31.9996C15.75 40.9602 23.04 48.2492 31.9996 48.2492C40.9602 48.2492 48.2492 40.9593 48.2492 31.9996C48.2502 23.04 40.9602 15.75 31.9996 15.75ZM31.9996 45.7499C24.4181 45.7499 18.2494 39.5821 18.2494 31.9996C18.2494 24.4181 24.4171 18.2494 31.9996 18.2494C39.5811 18.2494 45.7499 24.4171 45.7499 31.9996C45.7499 39.5821 39.5821 45.7499 31.9996 45.7499Z" fill="#8CBC4F"/>
<path d="M32.5975 22.6704C32.5956 22.6695 32.5928 22.6676 32.5909 22.6666C32.5806 22.661 32.5703 22.6554 32.56 22.6507C32.5525 22.647 32.5441 22.6441 32.5366 22.6404C32.5066 22.6263 32.4766 22.6132 32.4456 22.601C32.4325 22.5963 32.4194 22.5916 32.4063 22.587C32.3753 22.5766 32.3434 22.5673 32.3116 22.5588C32.2984 22.5551 32.2853 22.5513 32.2731 22.5485C32.2403 22.541 32.2066 22.5354 32.1728 22.5307C32.1606 22.5288 32.1494 22.527 32.1372 22.5251C32.0941 22.5204 32.0509 22.5176 32.0059 22.5176C32.0013 22.5176 31.9975 22.5176 31.9928 22.5176C31.9488 22.5176 31.9056 22.5204 31.8625 22.5251C31.8503 22.526 31.8381 22.5288 31.8269 22.5307C31.7931 22.5354 31.7594 22.541 31.7266 22.5485C31.7134 22.5513 31.7003 22.5551 31.6872 22.5588C31.6553 22.5673 31.6244 22.5766 31.5934 22.587C31.5803 22.5916 31.5672 22.5963 31.555 22.601C31.5241 22.6132 31.4931 22.6263 31.4631 22.6404C31.4556 22.6441 31.4481 22.646 31.4406 22.6498C31.4303 22.6545 31.4209 22.6601 31.4106 22.6657C31.4078 22.6676 31.405 22.6685 31.4022 22.6704C27.9157 24.4329 25.751 27.7235 25.751 31.2682C25.751 34.586 27.6485 37.6816 30.7506 39.5097V41.2197C30.7506 41.9097 31.3103 42.4694 32.0003 42.4694C32.6903 42.4694 33.25 41.9097 33.25 41.2197V39.5097C36.3531 37.6816 38.2497 34.586 38.2497 31.2682C38.2497 27.7235 36.085 24.4329 32.5975 22.6704ZM28.2494 31.2682C28.2494 29.321 29.1728 27.4629 30.7497 26.0922V36.4441C29.1728 35.0735 28.2494 33.2153 28.2494 31.2682ZM33.25 36.4441V26.0922C34.8269 27.4629 35.7503 29.321 35.7503 31.2682C35.7494 33.2153 34.8259 35.0735 33.25 36.4441Z" fill="#8CBC4F"/>
</g>
</g>
<defs>
<clipPath id="clip0_59_1413">
<rect width="64" height="64" fill="white"/>
</clipPath>
</defs>
</svg>
