<svg width="64" height="64" viewBox="0 0 64 64" fill="none" xmlns="http://www.w3.org/2000/svg">
<g clip-path="url(#clip0_59_1406)">
<path d="M62.7216 33.223L62.7141 33.1979C62.6127 32.7846 62.3058 32.4464 61.8938 32.3087C61.7635 32.2648 58.6349 31.2478 54.1812 31.5597C50.0832 31.8465 44.0264 33.362 38.4405 38.9466C35.1678 42.2205 33.2942 45.6547 32.2446 48.7621C31.1951 45.6547 29.3214 42.2193 26.0488 38.9466C20.4641 33.362 14.4073 31.8465 10.308 31.5597C5.85433 31.2466 2.72697 32.2648 2.59546 32.3087C2.18341 32.4452 1.87656 32.7846 1.77511 33.1979L1.76885 33.223C1.14763 35.3847 -1.44243 46.6705 8.44063 56.5548C14.0253 62.1394 20.0834 63.6549 24.1814 63.9417C24.7725 63.983 25.3386 64.0018 25.8797 64.0018C29.4116 64.0018 31.78 63.2316 31.8939 63.1927C32.0217 63.1502 32.1394 63.0863 32.2446 63.0086C32.3498 63.0863 32.4676 63.1502 32.5953 63.1927C32.7093 63.2303 35.0777 64.0018 38.6096 64.0018C39.1494 64.0018 39.7167 63.9843 40.3079 63.9417C44.4059 63.6549 50.4627 62.1394 56.0474 56.5548C65.9317 46.6705 63.3404 35.3847 62.7216 33.223ZM54.2488 34.0621C56.1526 33.9193 57.7958 34.0521 58.9956 34.2312L49.1652 44.0616V35.0653C50.7933 34.5305 52.4892 34.1936 54.2488 34.0621ZM40.2089 40.7151C42.194 38.73 44.352 37.1807 46.6665 36.071V46.5615L33.7263 59.5018C33.1802 55.7945 33.0875 47.8352 40.2089 40.7151ZM30.9333 54.755C31.0761 56.6587 30.9433 58.3019 30.7642 59.5018L17.8227 46.5615V36.071C20.1372 37.1794 22.2952 38.73 24.2803 40.7151C28.2969 44.7317 30.5363 49.4559 30.9333 54.755ZM10.2391 34.0621C11.9988 34.1936 13.6946 34.5305 15.3228 35.0666V44.0629L5.49237 34.2324C6.69221 34.0521 8.33542 33.9181 10.2391 34.0621ZM3.72892 36.0021L19.8529 52.1261H8.14004C8.05988 52.1261 7.98223 52.1349 7.90709 52.1487C3.13276 45.8288 3.21667 39.3862 3.72892 36.0021ZM10.2091 54.7863C10.1552 54.7337 10.1039 54.6799 10.0513 54.626H22.3515L28.9945 61.269C25.2885 61.815 17.3305 61.9077 10.2091 54.7863ZM40.2402 61.4393C38.3353 61.5821 36.6933 61.4493 35.4922 61.2702L42.1364 54.626H54.4367C54.3841 54.6786 54.3328 54.7325 54.2789 54.7863C50.2636 58.8029 45.5393 61.0423 40.2402 61.4393ZM56.5822 52.1487C56.507 52.1349 56.4294 52.1261 56.3492 52.1261H44.6376L60.7616 36.0021C61.2713 39.3862 61.3565 45.8288 56.5822 52.1487Z" fill="#194A33"/>
<path d="M31.6832 38.4516C31.8597 38.5405 32.0514 38.5844 32.2442 38.5844C32.4359 38.5844 32.6275 38.5405 32.8041 38.4516C32.9156 38.3952 35.562 37.0489 38.1984 34.0142C40.6244 31.2225 43.5163 26.4018 43.5163 19.2929C43.5163 6.71086 34.6777 1.17254 32.9068 0.190621L32.8893 0.181854C32.526 -0.037324 32.0702 -0.059868 31.6832 0.134261C31.5717 0.189369 28.9253 1.537 26.2876 4.57168C23.8616 7.36338 20.9697 12.184 20.9697 19.2929C20.9697 26.4018 23.8616 31.2225 26.2876 34.0142C28.9265 37.0476 31.5717 38.3952 31.6832 38.4516ZM36.3811 32.2933C35.3591 33.4831 34.3283 34.3849 33.4942 35.0211V26.9303L41.0164 19.4082C40.9926 24.4054 39.4345 28.7401 36.3811 32.2933ZM28.1062 6.29129C29.7406 4.38882 31.3976 3.22279 32.238 2.69802C34.2983 3.98428 39.6412 8.04346 40.7947 16.1067C40.7546 16.138 40.717 16.1706 40.6807 16.2069L33.4942 23.3934V18.4438V18.4425V12.1966C33.4942 11.5065 32.9343 10.9466 32.2442 10.9466C31.5541 10.9466 30.9943 11.5065 30.9943 12.1966V15.4241L25.5938 10.0236C26.2701 8.69849 27.108 7.45356 28.1062 6.29129ZM24.543 12.5097L30.9943 18.961V26.4118V26.4131V35.0199C28.2803 32.9408 23.4709 28.0237 23.4709 19.2929C23.4709 16.872 23.8303 14.6063 24.543 12.5097Z" fill="#8CBC4F"/>
<path d="M32.2446 8.44715C32.5727 8.44715 32.8958 8.31314 33.1275 8.08143C33.3605 7.84848 33.4945 7.5266 33.4945 7.19721C33.4945 6.86656 33.3605 6.54468 33.1275 6.31298C32.8958 6.08002 32.5727 5.94727 32.2446 5.94727C31.9164 5.94727 31.5933 6.08002 31.3603 6.31298C31.1274 6.54719 30.9946 6.86781 30.9946 7.19721C30.9946 7.5266 31.1274 7.84723 31.3603 8.08143C31.5933 8.31314 31.9164 8.44715 32.2446 8.44715Z" fill="#8CBC4F"/>
</g>
<defs>
<clipPath id="clip0_59_1406">
<rect width="64" height="64" fill="white"/>
</clipPath>
</defs>
</svg>
