<svg width="65" height="64" viewBox="0 0 65 64" fill="none" xmlns="http://www.w3.org/2000/svg">
<g clip-path="url(#clip0_59_1390)">
<mask id="mask0_59_1390" style="mask-type:luminance" maskUnits="userSpaceOnUse" x="-11" y="-11" width="86" height="86">
<path d="M74.6673 74.666H-10.666V-10.6673H74.6673V74.666Z" fill="white"/>
</mask>
<g mask="url(#mask0_59_1390)">
<path d="M58.2535 48.2541H47.1423C46.9873 47.1754 46.4948 46.1366 45.6673 45.3091C45.6648 45.3066 45.6623 45.3041 45.6598 45.3016L35.7673 35.5679C35.5336 35.3379 35.2186 35.2092 34.8911 35.2092H23.0511C22.3611 35.2092 21.8011 35.7692 21.8011 36.4592C21.8011 37.1492 22.3611 37.7092 23.0511 37.7092H34.3786L41.9998 45.2066L41.1948 46.0116C40.7061 46.5004 40.7073 47.2916 41.1948 47.7791C41.4385 48.0229 41.7585 48.1454 42.0785 48.1454C42.3985 48.1454 42.7185 48.0229 42.9623 47.7791L43.7823 46.9591L43.9035 47.0779C44.9635 48.1416 44.9623 49.8691 43.9035 50.9291L43.8873 50.9454C42.8235 52.0091 41.0935 52.0091 40.0298 50.9454L31.4998 42.4166C31.2648 42.1816 30.9473 42.0504 30.6161 42.0504H23.4474C22.7574 42.0504 22.1974 42.6104 22.1974 43.3004C22.1974 43.9904 22.7574 44.5504 23.4474 44.5504H30.0986L38.2623 52.7141C39.2823 53.7341 40.6211 54.2428 41.9598 54.2428C43.2973 54.2428 44.6348 53.7341 45.6523 52.7166L45.6685 52.7003C46.2373 52.1316 46.646 51.4641 46.8973 50.7529H58.2535C59.7622 50.7529 60.9897 51.9803 60.9897 53.4891C60.9897 54.9978 59.7622 56.2253 58.2535 56.2253H28.4399C22.8224 56.2253 17.8162 52.6566 15.9849 47.3466L15.5062 45.9579C15.4912 45.9104 15.4774 45.8629 15.4624 45.8154C15.4599 45.8079 15.4574 45.7991 15.4549 45.7916L12.0937 36.0629L12.0887 36.0504C12.0762 36.0142 12.0612 35.9792 12.0462 35.9442C12.0412 35.9329 12.0349 35.9204 12.0299 35.9092C12.0187 35.8867 12.0074 35.8642 11.9949 35.8429C11.9874 35.8304 11.9799 35.8167 11.9724 35.8042C11.9599 35.7842 11.9462 35.7642 11.9324 35.7442C11.9249 35.7329 11.9174 35.7217 11.9087 35.7104C11.8874 35.6829 11.8662 35.6554 11.8424 35.6292C11.8337 35.6192 11.8237 35.6092 11.8137 35.5992C11.7974 35.5829 11.7812 35.5654 11.7649 35.5504C11.7537 35.5404 11.7424 35.5292 11.7312 35.5192C11.7149 35.5042 11.6974 35.4904 11.6799 35.4767C11.6687 35.4679 11.6574 35.4592 11.6462 35.4504C11.6237 35.4342 11.6012 35.4192 11.5774 35.4042C11.5699 35.3992 11.5637 35.3942 11.5562 35.3904C11.5249 35.3717 11.4937 35.3542 11.4612 35.3379C11.4512 35.3329 11.4424 35.3292 11.4324 35.3242C11.4087 35.3129 11.3849 35.3029 11.3612 35.2929C11.3487 35.2879 11.3362 35.2829 11.3224 35.2792C11.3012 35.2717 11.2787 35.2642 11.2562 35.2579C11.2424 35.2542 11.2287 35.2492 11.2137 35.2467C11.1912 35.2404 11.1687 35.2367 11.1462 35.2317C11.1324 35.2292 11.1187 35.2254 11.1049 35.2229C11.0712 35.2179 11.0374 35.2142 11.0037 35.2117C10.9849 35.2104 10.9649 35.2104 10.9462 35.2092C10.9337 35.2092 10.9199 35.2079 10.9074 35.2079H1.24999C0.559997 35.2079 0 35.7679 0 36.4579V54.1791C0 54.8691 0.559997 55.4291 1.24999 55.4291H8.65871C10.9762 55.4291 13.0812 54.3641 14.4324 52.5078C14.7037 52.1353 14.9349 51.7403 15.1287 51.3291C17.9462 55.8591 22.9461 58.7266 28.4399 58.7266H58.2535C61.1409 58.7266 63.4897 56.3778 63.4897 53.4903C63.4897 50.6029 61.1409 48.2541 58.2535 48.2541ZM12.4112 51.0366C11.5362 52.2391 10.1687 52.9291 8.65871 52.9291H2.49999V37.7079H10.015L13.1162 46.6979C13.5699 48.2179 13.3174 49.7916 12.4112 51.0366Z" fill="#194A33"/>
<path d="M15.7937 36.7027C15.81 36.7827 15.8337 36.8615 15.865 36.9377C15.8975 37.0127 15.935 37.0852 15.98 37.1527C16.0025 37.1865 16.0275 37.219 16.0537 37.2515C16.0787 37.2827 16.1075 37.314 16.1362 37.3427C16.165 37.3715 16.195 37.4002 16.2275 37.4252C16.26 37.4515 16.2925 37.4765 16.3275 37.499C16.395 37.544 16.4675 37.5827 16.5437 37.614C16.6187 37.6452 16.6975 37.669 16.7775 37.6852C16.8175 37.6927 16.8587 37.699 16.9 37.7027C16.94 37.7077 16.9812 37.709 17.0225 37.709C17.0625 37.709 17.1037 37.7077 17.145 37.7027C17.185 37.699 17.2262 37.6927 17.2662 37.6852C17.3462 37.669 17.425 37.6452 17.5012 37.614C17.5762 37.5815 17.65 37.544 17.7175 37.499C17.7512 37.4765 17.7837 37.4515 17.8162 37.4252C17.8475 37.4002 17.8787 37.3715 17.9074 37.3427C17.9362 37.3152 17.9649 37.284 17.9899 37.2515C18.0162 37.2202 18.0412 37.1865 18.0624 37.1527C18.1074 37.084 18.1462 37.0115 18.1774 36.9377C18.2087 36.8615 18.2324 36.7827 18.2487 36.7027C18.2562 36.6627 18.2624 36.6215 18.2662 36.5815C18.2712 36.5402 18.2724 36.499 18.2724 36.459C18.2724 36.4177 18.2699 36.3765 18.2662 36.3352C18.2624 36.2952 18.2562 36.2552 18.2487 36.214C18.2324 36.134 18.2087 36.0552 18.1774 35.979C18.1462 35.904 18.1074 35.8315 18.0624 35.764C18.0399 35.7302 18.0149 35.6977 17.9899 35.6652C17.9637 35.634 17.9362 35.6027 17.9074 35.574C17.8787 35.5452 17.8475 35.5165 17.8162 35.4915C17.785 35.4652 17.7512 35.4402 17.7175 35.4177C17.65 35.3727 17.5762 35.334 17.5012 35.3027C17.425 35.2715 17.3462 35.2477 17.2662 35.2315C17.2275 35.224 17.1862 35.2177 17.145 35.214C16.775 35.1765 16.4 35.3127 16.1387 35.574C16.11 35.6027 16.0812 35.6327 16.0562 35.6652C16.03 35.6965 16.005 35.7302 15.9825 35.764C15.9375 35.8327 15.8987 35.9052 15.8675 35.979C15.8362 36.0552 15.8125 36.134 15.7962 36.214C15.7887 36.254 15.7825 36.2952 15.7787 36.3352C15.7737 36.3765 15.7725 36.4177 15.7725 36.459C15.7725 36.499 15.775 36.5402 15.7787 36.5815C15.7787 36.6227 15.785 36.6627 15.7937 36.7027Z" fill="#194A33"/>
<path d="M63.8322 20.7948C63.7509 20.2511 63.3247 19.8249 62.7809 19.7436C62.5259 19.7061 57.9984 19.0624 53.8322 20.5486C54.226 19.4549 54.4685 18.2849 54.4685 17.0636C54.4672 10.6874 47.8685 5.72867 47.5872 5.52117C47.146 5.19367 46.5422 5.19367 46.0998 5.52117C45.8185 5.72867 39.221 10.6861 39.221 17.0624C39.221 19.0749 39.8798 20.9461 40.7885 22.5711C37.831 21.9361 35.0923 22.3261 34.9111 22.3523C34.3673 22.4336 33.9411 22.8598 33.8598 23.4036C33.8161 23.6936 32.8423 30.556 36.6461 34.3598C39.1273 36.841 42.9073 37.2898 45.3173 37.2898C46.6023 37.2898 47.4997 37.1623 47.5997 37.1473C47.6147 37.1448 47.6297 37.141 47.6447 37.1385C47.9947 37.1835 48.956 37.291 50.2447 37.291C53.1147 37.291 57.6009 36.7585 60.5359 33.8223C65.0434 29.3136 63.8834 21.1398 63.8322 20.7948ZM46.8422 8.14366C48.4222 9.52615 51.9672 13.0724 51.9672 17.0636C51.9672 20.1873 49.796 23.0386 48.0947 24.7923L48.0935 16.3499C48.0935 15.6599 47.5335 15.0999 46.8435 15.0999C46.1535 15.0999 45.5935 15.6599 45.5935 16.3499L45.5948 24.7911C43.8935 23.0361 41.721 20.1848 41.7198 17.0599C41.7198 13.0699 45.2635 9.5249 46.8422 8.14366ZM36.2461 24.7373C38.0423 24.6373 41.906 24.7136 44.0973 26.9048C45.7173 28.5261 46.181 31.061 46.2723 32.9985L41.7235 28.4486C41.236 27.9598 40.4435 27.9598 39.956 28.4486C39.4685 28.9373 39.4673 29.7286 39.956 30.216L44.506 34.7673C42.5685 34.676 40.0348 34.2123 38.4148 32.5923C36.2211 30.3985 36.1461 26.5323 36.2461 24.7373ZM58.7684 32.0548C56.5597 34.2648 53.0072 34.7448 50.5647 34.7823L56.5335 28.8123C57.0209 28.3236 57.0209 27.5323 56.5335 27.0448C56.0447 26.5573 55.2535 26.5573 54.766 27.0448L48.7985 33.0148C48.836 30.571 49.316 27.0186 51.5247 24.8086C54.346 21.9861 59.3584 21.9848 61.4522 22.1248C61.5909 24.2186 61.5897 29.2323 58.7684 32.0548Z" fill="#8CBC4F"/>
</g>
</g>
<defs>
<clipPath id="clip0_59_1390">
<rect width="64.0028" height="64" fill="white"/>
</clipPath>
</defs>
</svg>
